<?xml version="1.0" standalone="no"?>
<!DOCTYPE svg PUBLIC "-//W3C//DTD SVG 20010904//EN"
 "http://www.w3.org/TR/2001/REC-SVG-20010904/DTD/svg10.dtd">
<svg version="1.0" xmlns="http://www.w3.org/2000/svg"
 width="225.000000pt" height="225.000000pt" viewBox="0 0 225.000000 225.000000"
 preserveAspectRatio="xMidYMid meet">
<metadata>
Created by potrace 1.10, written by Peter Selinger 2001-2011
</metadata>
<g transform="translate(0.000000,225.000000) scale(0.100000,-0.100000)"
fill="#000000" stroke="none">
<path d="M979 1778 c-26 -7 -40 -18 -52 -43 l-17 -35 31 -16 c32 -16 115 -11
103 7 -7 13 114 11 178 -2 96 -20 210 -82 285 -157 232 -229 233 -583 4 -813
-106 -106 -215 -158 -366 -175 -59 -6 -60 -7 -60 -36 l0 -30 65 6 c98 10 146
24 239 68 148 70 267 212 327 388 27 78 27 292 0 370 -85 250 -276 412 -529
450 -44 6 -101 9 -129 5 -45 -6 -50 -5 -45 9 4 9 5 16 4 15 -1 -1 -18 -5 -38
-11z" fill="white"/>
<path d="M636 1559 c-72 -78 -125 -175 -151 -274 -21 -80 -21 -234 0 -315 17
-65 76 -193 95 -205 16 -10 12 -25 -7 -25 -33 0 39 -57 80 -63 l37 -6 0 43 c0
31 -6 48 -22 64 -13 11 -27 21 -33 21 -16 -1 -73 110 -89 176 -20 76 -20 224
-1 300 23 87 72 171 144 248 62 66 63 68 46 87 -10 11 -21 20 -26 20 -4 0 -37
-32 -73 -71z" fill="white"/>
<path d="M1081 1129 c-57 -127 -101 -232 -99 -233 1 -1 15 -7 29 -13 l26 -11
96 217 c53 119 99 224 102 232 4 10 -3 20 -20 27 -14 7 -27 12 -29 12 -2 0
-49 -104 -105 -231z" fill="white"/>
<path d="M800 1216 c-58 -52 -104 -97 -104 -101 1 -4 50 -50 110 -101 l107
-94 24 22 23 22 -52 45 c-29 25 -68 60 -87 77 l-34 31 44 40 c24 22 62 56 84
75 39 36 40 36 21 57 -11 12 -22 21 -25 21 -3 -1 -53 -43 -111 -94z" fill="white"/>
<path d="M1274 1289 c-21 -24 -32 -10 99 -124 l57 -50 -85 -74 -85 -74 22 -24
c21 -23 22 -23 42 -5 12 10 59 52 106 93 47 41 85 79 85 84 1 10 -205 195
-216 195 -3 0 -14 -9 -25 -21z" fill="white"/>
<path d="M785 558 c4 -10 -54 -12 -275 -10 l-280 3 0 -36 0 -35 281 0 c184 0
278 -3 274 -10 -4 -6 9 -10 33 -10 29 0 45 7 65 28 l27 28 -28 27 c-20 19 -39
27 -65 27 -25 0 -35 -4 -32 -12z m56 -43 c0 -5 -9 -11 -21 -13 -20 -3 -27 8
-13 22 10 9 34 3 34 -9z" fill="white"/>
<path d="M1888 558 c8 -10 -30 -12 -189 -10 l-199 3 0 -35 0 -36 203 0 c134 0
197 -4 187 -10 -11 -7 -3 -10 29 -10 35 0 51 6 72 26 l27 26 -33 29 c-23 21
-43 29 -70 29 -29 0 -35 -3 -27 -12z m60 -46 c4 -14 -34 -16 -42 -3 -6 10 13
21 28 17 6 -1 12 -8 14 -14z" fill="white"/>
</g>
</svg>
